<?xml version="1.0" encoding="utf-8"?>
<!-- Generator: Adobe Illustrator 18.0.0, SVG Export Plug-In . SVG Version: 6.00 Build 0)  -->
<!DOCTYPE svg PUBLIC "-//W3C//DTD SVG 1.1//EN" "http://www.w3.org/Graphics/SVG/1.1/DTD/svg11.dtd">
<svg version="1.1" id="Capa_1" xmlns="http://www.w3.org/2000/svg" xmlns:xlink="http://www.w3.org/1999/xlink" x="0px" y="0px"
	 viewBox="0 0 612 612" enable-background="new 0 0 612 612" xml:space="preserve">
<path fill="#22A9ED" d="M306,103.9c-102,0-184.8,82.7-184.8,184.8c0,81.9,53.3,151.2,127,175.4v113.3h23.1V612h69.3v-34.6h23.1
	V464.1c73.7-24.3,127-93.6,127-175.4C490.8,186.6,408,103.9,306,103.9z"/>
<g>
	<path fill="#22A9ED" d="M306,0c-6.4,0-11.5,5.2-11.5,11.5v46.2c0,6.4,5.2,11.5,11.5,11.5s11.5-5.2,11.5-11.5V11.5
		C317.5,5.2,312.4,0,306,0z"/>
	<path fill="#22A9ED" d="M583.1,277.1h-46.2c-6.4,0-11.5,5.2-11.5,11.5c0,6.4,5.2,11.5,11.5,11.5h46.2c6.4,0,11.5-5.2,11.5-11.5
		C594.7,282.3,589.5,277.1,583.1,277.1z"/>
	<path fill="#22A9ED" d="M75.1,277.1H28.9c-6.4,0-11.5,5.2-11.5,11.5c0,6.4,5.2,11.5,11.5,11.5h46.2c6.4,0,11.5-5.2,11.5-11.5
		C86.6,282.3,81.4,277.1,75.1,277.1z"/>
	<path fill="#22A9ED" d="M493.8,84.5l-32.7,32.7c-4.5,4.5-4.5,11.8,0,16.3c2.3,2.3,5.2,3.4,8.2,3.4s5.9-1.1,8.2-3.4l32.7-32.7
		c4.5-4.5,4.5-11.8,0-16.3C505.6,80,498.3,80,493.8,84.5z"/>
	<path fill="#22A9ED" d="M134.5,443.8l-32.7,32.7c-4.5,4.5-4.5,11.8,0,16.3c2.3,2.3,5.2,3.4,8.2,3.4s5.9-1.1,8.2-3.4l32.7-32.7
		c4.5-4.5,4.5-11.8,0-16.3S139,439.3,134.5,443.8z"/>
	<path fill="#22A9ED" d="M477.5,443.8c-4.5-4.5-11.8-4.5-16.3,0s-4.5,11.8,0,16.3l32.7,32.7c2.3,2.3,5.2,3.4,8.2,3.4
		s5.9-1.1,8.2-3.4c4.5-4.5,4.5-11.8,0-16.3L477.5,443.8z"/>
	<path fill="#22A9ED" d="M118.2,84.5c-4.5-4.5-11.8-4.5-16.3,0c-4.5,4.5-4.5,11.8,0,16.3l32.7,32.7c2.3,2.3,5.2,3.4,8.2,3.4
		s5.9-1.1,8.2-3.4c4.5-4.5,4.5-11.8,0-16.3L118.2,84.5z"/>
</g>
<path fill="#92CBFF" d="M179,300.2c-6.4,0-11.5-5.2-11.5-11.5c0-76.4,62.2-138.6,138.6-138.6c6.4,0,11.5,5.2,11.5,11.5
	s-5.2,11.5-11.5,11.5c-63.7,0-115.5,51.8-115.5,115.5C190.5,295.1,185.4,300.2,179,300.2z"/>
<polygon fill="#404A66" points="248.3,496.5 248.3,577.4 271.4,577.4 271.4,612 340.6,612 340.6,577.4 363.7,577.4 363.7,496.5 "/>
</svg>
