<?xml version="1.0"?>
<svg xmlns="http://www.w3.org/2000/svg" xmlns:xlink="http://www.w3.org/1999/xlink" version="1.1" id="Layer_1" x="0px" y="0px" viewBox="0 0 512.005 512.005" style="enable-background:new 0 0 512.005 512.005;" xml:space="preserve" width="512px" height="512px" class=""><g><polygon style="fill:#259AD6" points="146.798,478.818 87.145,447.104 95.201,431.95 146.798,459.382 198.4,431.95   206.455,447.104 " data-original="#D6CED1" class="" data-old_color="#D6CED1"/><path style="fill:#035681" d="M282.504,496.911L155.38,387.865V246.796h-17.162v141.069L11.093,496.911  c-3.598,3.086-4.012,8.503-0.927,12.099c3.085,3.596,8.502,4.014,12.099,0.927l115.951-99.461v92.947  c0,4.739,3.841,8.581,8.581,8.581s8.581-3.842,8.581-8.581v-92.948l115.951,99.461c1.619,1.389,3.605,2.069,5.582,2.069  c2.418,0,4.82-1.016,6.517-2.994C286.515,505.414,286.101,499.996,282.504,496.911z" data-original="#8B7E7F" class="active-path" data-old_color="#8B7E7F"/><path style="fill:#259AD6" d="M94.212,26.276C38.36,82.127,61.904,196.225,146.798,281.119  c106.469,106.469,220.565,86.864,254.843,52.587l8.09-8.09L102.302,18.186L94.212,26.276z" data-original="#D6CED1" class="" data-old_color="#D6CED1"/><ellipse transform="matrix(0.7071 -0.7071 0.7071 0.7071 -46.561 231.3805)" style="fill:#60BDEC" cx="256.02" cy="171.894" rx="108.692" ry="217.383" data-original="#ECE7EA" class="" data-old_color="#ECE7EA"/><path style="fill:#035681" d="M434.648,146.985c-3.351,3.351-3.351,8.785,0,12.136c3.351,3.351,8.784,3.351,12.136,0l24.271-24.271  l-12.136-12.136L434.648,146.985z" data-original="#8B7E7F" class="active-path" data-old_color="#8B7E7F"/><path style="fill:#259AD6" d="M450.829,114.623c-3.351,3.351-3.351,8.785,0,12.135l32.362,32.361L363.213,279.097  c-3.351,3.351-3.351,8.785,0,12.136c3.351,3.351,8.784,3.351,12.136,0l126.045-126.045c3.351-3.351,3.351-8.785,0-12.135  l-38.428-38.429C459.612,111.272,454.18,111.272,450.829,114.623z" data-original="#D6CED1" class="" data-old_color="#D6CED1"/></g> </svg>
