<?xml version="1.0" encoding="utf-8"?>
<!-- Generator: Adobe Illustrator 18.0.0, SVG Export Plug-In . SVG Version: 6.00 Build 0)  -->
<!DOCTYPE svg PUBLIC "-//W3C//DTD SVG 1.1//EN" "http://www.w3.org/Graphics/SVG/1.1/DTD/svg11.dtd">
<svg version="1.1" id="Capa_1" xmlns="http://www.w3.org/2000/svg" xmlns:xlink="http://www.w3.org/1999/xlink" x="0px" y="0px"
	 viewBox="0 0 612 612" enable-background="new 0 0 612 612" xml:space="preserve">
<path fill="#404A66" d="M447.2,0H164.8c-15.2,0-27.6,12.4-27.6,27.6V211v84.4v289c0,15.2,12.4,27.6,27.6,27.6h282.5
	c15.2,0,27.6-12.4,27.6-27.6v-289V211V27.6C474.8,12.4,462.5,0,447.2,0z"/>
<rect x="137.2" y="63.3" fill="#2AB0F4" width="337.7" height="443.2"/>
<g>
	<path fill="#C4CED3" d="M358.8,42.2H253.2c-5.8,0-10.6-4.7-10.6-10.6s4.7-10.6,10.6-10.6h105.5c5.8,0,10.6,4.7,10.6,10.6
		S364.6,42.2,358.8,42.2z"/>
	<path fill="#C4CED3" d="M432.6,42.2h-10.6c-5.8,0-10.6-4.7-10.6-10.6s4.7-10.6,10.6-10.6h10.6c5.8,0,10.6,4.7,10.6,10.6
		S438.4,42.2,432.6,42.2z"/>
	<path fill="#C4CED3" d="M319.1,580.3h-26.2c-10.2,0-18.6-8.3-18.6-18.6v-5.1c0-10.2,8.3-18.6,18.6-18.6h26.2
		c10.2,0,18.6,8.3,18.6,18.6v5.1C337.7,572,329.4,580.3,319.1,580.3z"/>
</g>
</svg>
