<?xml version="1.0" encoding="utf-8"?>
<!-- Generator: Adobe Illustrator 18.0.0, SVG Export Plug-In . SVG Version: 6.00 Build 0)  -->
<!DOCTYPE svg PUBLIC "-//W3C//DTD SVG 1.1//EN" "http://www.w3.org/Graphics/SVG/1.1/DTD/svg11.dtd">
<svg version="1.1" id="Capa_1" xmlns="http://www.w3.org/2000/svg" xmlns:xlink="http://www.w3.org/1999/xlink" x="0px" y="0px"
	 viewBox="0 0 612 612" enable-background="new 0 0 612 612" xml:space="preserve">
<rect x="291.4" y="48.6" fill="#1DA9EF" width="29.1" height="48.6"/>
<g>
	<rect x="218.6" y="9.7" fill="#038CD1" width="19.4" height="87.4"/>
	<rect x="374" y="9.7" fill="#038CD1" width="19.4" height="87.4"/>
</g>
<path fill="#20A7EB" d="M374,563.4H238l-7.4,37c-1.2,6,3.4,11.6,9.5,11.6h131.7c6.1,0,10.7-5.6,9.5-11.6L374,563.4z"/>
<path fill="#60BDEC" d="M374,87.4H238c-32.2,0-58.3,26.1-58.3,58.3v369.1c0,32.2,26.1,58.3,58.3,58.3h136
	c32.2,0,58.3-26.1,58.3-58.3V145.7C432.3,113.5,406.2,87.4,374,87.4z"/>
<g>
	<path fill="#159DE1" d="M267.1,514.9V145.7c0-32.2,26.1-58.3,58.3-58.3H238c-32.2,0-58.3,26.1-58.3,58.3v369.1
		c0,32.2,26.1,58.3,58.3,58.3h87.4C293.2,573.1,267.1,547,267.1,514.9z"/>
	<path fill="#2E92ED" d="M403.1,19.4H208.9c-5.4,0-9.7-4.3-9.7-9.7s4.3-9.7,9.7-9.7h194.3c5.4,0,9.7,4.3,9.7,9.7
		S408.5,19.4,403.1,19.4z"/>
</g>
<path fill="#3DBCFD" d="M330.3,58.3h-48.6c-5.4,0-9.7-4.3-9.7-9.7s4.3-9.7,9.7-9.7h48.6c5.4,0,9.7,4.3,9.7,9.7
	S335.7,58.3,330.3,58.3z"/>
<path fill="#038CD1" d="M432.3,340H179.7c-5.4,0-9.7-4.3-9.7-9.7l0,0c0-5.4,4.3-9.7,9.7-9.7h252.6c5.4,0,9.7,4.3,9.7,9.7l0,0
	C442,335.7,437.7,340,432.3,340z"/>
<path fill="#35B1F0" d="M257.4,330.3c0-5.4,4.3-9.7,9.7-9.7h-87.4c-5.4,0-9.7,4.3-9.7,9.7c0,5.4,4.3,9.7,9.7,9.7h87.4
	C261.8,340,257.4,335.7,257.4,330.3z"/>
<path fill="#3DBCFD" d="M284.4,599.2l-4.3,12.8h91.8c6.1,0,10.7-5.6,9.5-11.6l-1.6-7.8h-86.3C289.4,592.6,285.7,595.2,284.4,599.2z"
	/>
</svg>
