<?xml version="1.0"?>
<svg xmlns="http://www.w3.org/2000/svg" viewBox="0 0 64 64" width="512px" height="512px"><g><g id="Cheque"><path d="M44,58H8V32H42a1,1,0,0,0,0-2H7a1,1,0,0,0-1,1V54H4V28H42a1,1,0,0,0,0-2H3a1,1,0,0,0-1,1V55a1,1,0,0,0,1,1H6v3a1,1,0,0,0,1,1H44a1,1,0,0,0,0-2Z" data-original="#000000" class="active-path" data-old_color="#000000" fill="#434242"/><path d="M61,30H58V27a1,1,0,0,0-1-1H54.22a1,1,0,0,0,0,2H56v2H54a1,1,0,0,0,0,2h6V58H52a1,1,0,0,0,0,2h9a1,1,0,0,0,1-1V31A1,1,0,0,0,61,30Z" data-original="#000000" class="active-path" data-old_color="#000000" fill="#434242"/><path d="M11,51v4a1,1,0,0,0,1,1H36a1,1,0,0,0,1-1V51a1,1,0,0,0-1-1H12A1,1,0,0,0,11,51Zm2,1H35v2H13Z" data-original="#000000" class="active-path" data-old_color="#000000" fill="#434242"/><path d="M41,38H25a1,1,0,0,0,0,2H41a1,1,0,0,0,0-2Z" data-original="#000000" class="active-path" data-old_color="#000000" fill="#434242"/><path d="M42,43a1,1,0,0,0-1-1H25a1,1,0,0,0,0,2H41A1,1,0,0,0,42,43Z" data-original="#000000" class="active-path" data-old_color="#000000" fill="#434242"/><path d="M16,44c-1.221,0-2-.592-2-1a1,1,0,0,0-2,0c0,1.421,1.259,2.571,3,2.9V47a1,1,0,0,0,2,0V45.9c1.741-.327,3-1.477,3-2.9,0-1.682-1.757-3-4-3-1.221,0-2-.592-2-1s.779-1,2-1,2,.592,2,1a1,1,0,0,0,2,0c0-1.421-1.259-2.571-3-2.9V35a1,1,0,0,0-2,0v1.1c-1.741.327-3,1.477-3,2.9,0,1.682,1.757,3,4,3,1.221,0,2,.592,2,1S17.221,44,16,44Z" data-original="#000000" class="active-path" data-old_color="#000000" fill="#434242"/><path d="M52,52V14h1a1,1,0,0,1,1,1v8a1,1,0,0,0,2,0V15a3,3,0,0,0-3-3V7A5,5,0,0,0,43,7v6a1,1,0,0,0,1,1V52a1,1,0,0,0,.052.316l3,9a1,1,0,0,0,1.9,0l3-9A1,1,0,0,0,52,52ZM45,7a3,3,0,0,1,6,0v5H45Zm5,7V39H46V14Zm0,37H46V41h4Zm-2,6.838L46.387,53h3.226Z" data-original="#000000" class="active-path" data-old_color="#000000" fill="#434242"/><path d="M55,40h2a1,1,0,0,0,0-2H55a1,1,0,0,0,0,2Z" data-original="#000000" class="active-path" data-old_color="#000000" fill="#434242"/><path d="M55,44h2a1,1,0,0,0,0-2H55a1,1,0,0,0,0,2Z" data-original="#000000" class="active-path" data-old_color="#000000" fill="#434242"/></g></g> </svg>
