<?xml version="1.0"?>
<svg xmlns="http://www.w3.org/2000/svg" xmlns:xlink="http://www.w3.org/1999/xlink" version="1.1" id="Capa_1" x="0px" y="0px" viewBox="0 0 512 512" style="enable-background:new 0 0 512 512;" xml:space="preserve" width="512px" height="512px"><g><g>
	<g>
		<path d="M401.067,426.667H110.933c-4.71,0-8.533,3.823-8.533,8.533v40.397c0,20.07,16.333,36.403,36.403,36.403h234.394    c20.07,0,36.403-16.333,36.403-36.403V435.2C409.6,430.49,405.777,426.667,401.067,426.667z M392.533,475.597    c0,10.658-8.67,19.336-19.328,19.336H138.803c-10.667,0-19.337-8.678-19.337-19.336v-31.864h273.067V475.597z" data-original="#000000" class="active-path" data-old_color="#000000" fill="#434242"/>
	</g>
</g><g>
	<g>
		<path d="M281.6,460.8h-51.2c-4.71,0-8.533,3.823-8.533,8.533s3.823,8.533,8.533,8.533h51.2c4.71,0,8.533-3.823,8.533-8.533    S286.31,460.8,281.6,460.8z" data-original="#000000" class="active-path" data-old_color="#000000" fill="#434242"/>
	</g>
</g><g>
	<g>
		<path d="M358.4,460.8h-34.133c-4.71,0-8.533,3.823-8.533,8.533s3.823,8.533,8.533,8.533H358.4c4.71,0,8.533-3.823,8.533-8.533    S363.11,460.8,358.4,460.8z" data-original="#000000" class="active-path" data-old_color="#000000" fill="#434242"/>
	</g>
</g><g>
	<g>
		<path d="M187.733,460.8H153.6c-4.71,0-8.533,3.823-8.533,8.533s3.823,8.533,8.533,8.533h34.133c4.71,0,8.533-3.823,8.533-8.533    S192.444,460.8,187.733,460.8z" data-original="#000000" class="active-path" data-old_color="#000000" fill="#434242"/>
	</g>
</g><g>
	<g>
		<path d="M373.205,0H138.803C118.733,0,102.4,16.333,102.4,36.403V76.8c0,4.71,3.823,8.533,8.533,8.533h290.133    c4.71,0,8.533-3.823,8.533-8.533V36.403C409.6,16.333,393.267,0,373.205,0z M392.533,68.267H119.467V36.403    c0-10.658,8.67-19.337,19.337-19.337h234.394c10.667,0,19.336,8.678,19.336,19.337V68.267z" data-original="#000000" class="active-path" data-old_color="#000000" fill="#434242"/>
	</g>
</g><g>
	<g>
		<path d="M298.667,34.133h-85.333c-4.71,0-8.533,3.823-8.533,8.533c0,4.71,3.823,8.533,8.533,8.533h85.333    c4.71,0,8.533-3.823,8.533-8.533C307.2,37.956,303.377,34.133,298.667,34.133z" data-original="#000000" class="active-path" data-old_color="#000000" fill="#434242"/>
	</g>
</g><g>
	<g>
		<path d="M401.067,68.267H110.933c-4.71,0-8.533,3.823-8.533,8.533v358.4c0,4.71,3.823,8.533,8.533,8.533h290.133    c4.71,0,8.533-3.823,8.533-8.533V76.8C409.6,72.09,405.777,68.267,401.067,68.267z M392.533,426.667H119.467V85.333h273.067    V426.667z" data-original="#000000" class="active-path" data-old_color="#000000" fill="#434242"/>
	</g>
</g><g>
	<g>
		<path d="M451.934,193.886c-1.323-4.531-6.05-7.151-10.581-5.811c-4.531,1.314-7.125,6.05-5.811,10.573    c5.393,18.543,8.132,37.837,8.132,57.344c0,19.576-2.756,38.929-8.192,57.532c-1.314,4.523,1.28,9.259,5.803,10.581    c0.802,0.239,1.604,0.35,2.398,0.35c3.695,0,7.1-2.415,8.192-6.144c5.888-20.156,8.875-41.122,8.875-62.31    C460.749,234.88,457.779,213.982,451.934,193.886z" data-original="#000000" class="active-path" data-old_color="#000000" fill="#434242"/>
	</g>
</g><g>
	<g>
		<path d="M76.518,313.532c-5.436-18.603-8.192-37.965-8.192-57.532c0-19.507,2.739-38.801,8.141-57.353    c1.314-4.523-1.289-9.259-5.811-10.573c-4.54-1.331-9.267,1.28-10.581,5.811C54.229,213.982,51.26,234.88,51.26,256    c0,21.188,2.987,42.155,8.875,62.31c1.084,3.721,4.489,6.144,8.183,6.144c0.794,0,1.596-0.111,2.398-0.341    C75.247,322.79,77.841,318.054,76.518,313.532z" data-original="#000000" class="active-path" data-old_color="#000000" fill="#434242"/>
	</g>
</g><g>
	<g>
		<path d="M17.067,256c0-34.731,5.794-66.833,16.324-90.385c1.92-4.301-0.009-9.344-4.309-11.273    c-4.301-1.911-9.344,0.009-11.273,4.309C6.323,184.354,0,218.923,0,256s6.323,71.646,17.801,97.348    c1.425,3.166,4.54,5.052,7.799,5.052c1.169,0,2.347-0.239,3.482-0.742c4.301-1.92,6.229-6.972,4.309-11.273    C22.861,322.833,17.067,290.731,17.067,256z" data-original="#000000" class="active-path" data-old_color="#000000" fill="#434242"/>
	</g>
</g><g>
	<g>
		<path d="M494.191,158.652c-1.929-4.301-6.972-6.221-11.273-4.309c-4.301,1.92-6.229,6.972-4.309,11.273    c10.53,23.552,16.324,55.654,16.324,90.385s-5.794,66.833-16.316,90.385c-1.92,4.301,0.009,9.344,4.309,11.273    c1.126,0.503,2.313,0.742,3.473,0.742c3.26,0,6.374-1.877,7.791-5.052C505.677,327.646,512,293.077,512,256    S505.677,184.354,494.191,158.652z" data-original="#000000" class="active-path" data-old_color="#000000" fill="#434242"/>
	</g>
</g><g>
	<g>
		<path d="M366.933,102.4H145.067c-4.71,0-8.533,3.823-8.533,8.533v290.133c0,4.71,3.823,8.533,8.533,8.533h221.867    c4.71,0,8.533-3.823,8.533-8.533V110.933C375.467,106.223,371.644,102.4,366.933,102.4z M358.4,392.533H153.6V119.467h204.8    V392.533z" data-original="#000000" class="active-path" data-old_color="#000000" fill="#434242"/>
	</g>
</g><g>
	<g>
		<path d="M332.8,290.133H230.4c-4.71,0-8.533,3.823-8.533,8.533s3.823,8.533,8.533,8.533h102.4c4.71,0,8.533-3.823,8.533-8.533    S337.51,290.133,332.8,290.133z" data-original="#000000" class="active-path" data-old_color="#000000" fill="#434242"/>
	</g>
</g><g>
	<g>
		<path d="M196.011,290.133H179.2c-4.71,0-8.533,3.823-8.533,8.533s3.823,8.533,8.533,8.533h16.811c4.71,0,8.533-3.823,8.533-8.533    S200.721,290.133,196.011,290.133z" data-original="#000000" class="active-path" data-old_color="#000000" fill="#434242"/>
	</g>
</g><g>
	<g>
		<path d="M332.8,358.4H230.4c-4.71,0-8.533,3.823-8.533,8.533s3.823,8.533,8.533,8.533h102.4c4.71,0,8.533-3.823,8.533-8.533    S337.51,358.4,332.8,358.4z" data-original="#000000" class="active-path" data-old_color="#000000" fill="#434242"/>
	</g>
</g><g>
	<g>
		<path d="M196.011,358.4H179.2c-4.71,0-8.533,3.823-8.533,8.533s3.823,8.533,8.533,8.533h16.811c4.71,0,8.533-3.823,8.533-8.533    S200.721,358.4,196.011,358.4z" data-original="#000000" class="active-path" data-old_color="#000000" fill="#434242"/>
	</g>
</g><g>
	<g>
		<path d="M221.867,324.267H179.2c-4.71,0-8.533,3.823-8.533,8.533c0,4.71,3.823,8.533,8.533,8.533h42.667    c4.71,0,8.533-3.823,8.533-8.533C230.4,328.09,226.577,324.267,221.867,324.267z" data-original="#000000" class="active-path" data-old_color="#000000" fill="#434242"/>
	</g>
</g><g>
	<g>
		<path d="M332.8,324.267h-25.6c-4.71,0-8.533,3.823-8.533,8.533c0,4.71,3.823,8.533,8.533,8.533h25.6    c4.71,0,8.533-3.823,8.533-8.533C341.333,328.09,337.51,324.267,332.8,324.267z" data-original="#000000" class="active-path" data-old_color="#000000" fill="#434242"/>
	</g>
</g><g>
	<g>
		<path d="M273.067,324.267H256c-4.71,0-8.533,3.823-8.533,8.533c0,4.71,3.823,8.533,8.533,8.533h17.067    c4.71,0,8.533-3.823,8.533-8.533C281.6,328.09,277.777,324.267,273.067,324.267z" data-original="#000000" class="active-path" data-old_color="#000000" fill="#434242"/>
	</g>
</g><g>
	<g>
		<path d="M366.933,102.4H145.067c-4.71,0-8.533,3.823-8.533,8.533v153.6c0,4.71,3.823,8.533,8.533,8.533h221.867    c4.71,0,8.533-3.823,8.533-8.533v-153.6C375.467,106.223,371.644,102.4,366.933,102.4z M358.4,256H153.6V119.467h204.8V256z" data-original="#000000" class="active-path" data-old_color="#000000" fill="#434242"/>
	</g>
</g><g>
	<g>
		<path d="M253.5,207.3l-25.6-25.6c-3.328-3.336-8.738-3.336-12.066,0c-3.337,3.337-3.337,8.73,0,12.066l25.6,25.6    c1.664,1.664,3.849,2.5,6.033,2.5c2.185,0,4.369-0.836,6.033-2.5C256.836,216.03,256.836,210.637,253.5,207.3z" data-original="#000000" class="active-path" data-old_color="#000000" fill="#434242"/>
	</g>
</g><g>
	<g>
		<path d="M295.595,155.58c-3.61-3.012-8.994-2.526-12.015,1.092l-42.667,51.2c-3.021,3.618-2.526,8.994,1.092,12.015    c1.596,1.331,3.533,1.98,5.461,1.98c2.441,0,4.873-1.05,6.554-3.072l42.667-51.2C299.708,163.977,299.213,158.601,295.595,155.58z    " data-original="#000000" class="active-path" data-old_color="#000000" fill="#434242"/>
	</g>
</g></g> </svg>
